<svg xmlns="http://www.w3.org/2000/svg" viewBox="0 0 278.18 375.56"><title>blueberry</title><g id="Layer_2" data-name="Layer 2"><g id="Layer_1-2" data-name="Layer 1"><path d="M157,218.53a74.5,74.5,0,0,0-13.34,3.38,77,77,0,0,0-51.45,71.67c0,.33,0,.65,0,1a77.34,77.34,0,0,0,1,12.72A77,77,0,1,1,157,218.53Z" style="fill:none;stroke:#1b1464;stroke-miterlimit:10;stroke-width:8px"/><path d="M246.16,194.3c0,13.36-7.35,25.2-18.7,32.6-9.88-14.19-27.7-23.66-48-23.66a63.82,63.82,0,0,0-8.92.63A47,47,0,0,0,157,179.14c6.85-14.91,23.49-25.43,42.93-25.43C225.44,153.71,246.16,171.88,246.16,194.3Z" style="fill:#29abe2"/><path d="M116.31,219.87c-20.4,7.85-35.09,29-35.37,54a40.64,40.64,0,0,1-7.68.74c-24,0-43.53-21.36-43.53-47.71s19.49-47.7,43.53-47.7C95.11,179.2,113.21,196.86,116.31,219.87Z" style="fill:#29abe2"/><circle cx="165.44" cy="292.54" r="49.13" style="fill:#29abe2"/><path d="M274.18,203.61A76.9,76.9,0,0,1,241,266.9a75.68,75.68,0,0,0-6.14-12.44A77,77,0,0,0,157,218.53a77.22,77.22,0,0,0-29.14-48.41,77,77,0,0,1,146.36,33.49Z" style="fill:none;stroke:#1b1464;stroke-miterlimit:10;stroke-width:8px"/><path d="M246.16,294.56a77,77,0,1,1-154,0c0-.33,0-.65,0-1a77,77,0,0,1,51.45-71.67A74.5,74.5,0,0,1,157,218.53a77,77,0,0,1,77.94,35.93A75.68,75.68,0,0,1,241,266.9,76.74,76.74,0,0,1,246.16,294.56Z" style="fill:none;stroke:#1b1464;stroke-miterlimit:10;stroke-width:8px"/><path d="M124.46,147.26c-.36-.41-.71-.81-1-1.22a77.79,77.79,0,0,0,0-20.91A81.82,81.82,0,0,0,112,93.8a106.64,106.64,0,0,0-9.42-13.09c4.56-42.23,37.31-75.94,37.31-75.94C226.66,77.57,124.46,147.26,124.46,147.26Z" style="fill:none;stroke:#009245;stroke-miterlimit:10;stroke-width:7px"/><path d="M133.27,112.23c-.66-1-1.29-1.94-1.87-2.92a65.81,65.81,0,0,0-7.15-22.8c-2-28.36,18-54.1,18-54.1C179.92,71.55,133.27,112.23,133.27,112.23Z" style="fill:lime"/><path d="M106.09,124.81S42.53,108.1,56.7,59.87C56.7,59.87,110.23,84,106.09,124.81Z" style="fill:lime"/><path d="M123.41,145.84c-.07.55-.15,1.1-.23,1.65,0,0-110.42-23.36-81-110.71,0,0,36.1,14.76,60.37,43.73A106.64,106.64,0,0,1,112,93.6a81.82,81.82,0,0,1,11.4,31.33A77.79,77.79,0,0,1,123.41,145.84Z" style="fill:none;stroke:#009245;stroke-miterlimit:10;stroke-width:7px"/></g></g></svg>