<svg xmlns="http://www.w3.org/2000/svg" viewBox="0 0 237.6 315.58"><title>goat</title><g id="Layer_2" data-name="Layer 2"><g id="Layer_1-2" data-name="Layer 1"><line x1="4" y1="66.33" x2="233.6" y2="66.33" style="fill:none;stroke:#1b1464;stroke-linecap:round;stroke-miterlimit:10;stroke-width:8px"/><line x1="113.63" y1="207.96" x2="113.63" y2="196.17" style="fill:none;stroke:#1b1464;stroke-linecap:round;stroke-miterlimit:10;stroke-width:5px"/><line x1="123.97" y1="207.96" x2="123.97" y2="196.17" style="fill:none;stroke:#1b1464;stroke-linecap:round;stroke-miterlimit:10;stroke-width:5px"/><line x1="4" y1="66.33" x2="118.8" y2="311.58" style="fill:none;stroke:#1b1464;stroke-linecap:round;stroke-miterlimit:10;stroke-width:8px"/><line x1="233.6" y1="66.33" x2="118.8" y2="311.58" style="fill:none;stroke:#1b1464;stroke-linecap:round;stroke-miterlimit:10;stroke-width:8px"/><circle cx="156.3" cy="131.1" r="11.42" style="fill:#1b1464"/><circle cx="85.49" cy="131.1" r="11.42" style="fill:#1b1464"/><polygon points="22.34 77.8 42.5 121.47 42.5 77.8 22.34 77.8" style="fill:#29abe2"/><polygon points="215.41 77.8 195.25 121.47 195.25 77.8 215.41 77.8" style="fill:#29abe2"/><polygon points="119.26 286.74 106.22 256.56 131.38 256.56 119.26 286.74" style="fill:#29abe2"/><line x1="106.22" y1="231.96" x2="131.38" y2="231.96" style="fill:none;stroke:#1b1464;stroke-linecap:round;stroke-miterlimit:10;stroke-width:5px"/><polygon points="74.08 57.57 74.08 0 99.7 57.57 74.08 57.57" style="fill:#29abe2"/><polygon points="167.72 57.57 167.72 0 142.09 57.57 167.72 57.57" style="fill:#29abe2"/></g></g></svg>