<svg xmlns="http://www.w3.org/2000/svg" viewBox="0 0 493.55 523.22"><title>hydro-ponics</title><g id="Layer_2" data-name="Layer 2"><g id="Layer_1-2" data-name="Layer 1"><path d="M443.88,261.61c0,115.62-88.25,209.35-197.1,209.35S49.68,377.23,49.68,261.61H237.91V296l-87.52,69,12,15.39,75.52-59.53V421.2h18.47V319.79l74.82,61,12.09-15-86.91-70.86V261.61Z" style="fill:#29abe2"/><ellipse cx="246.78" cy="261.61" rx="238.78" ry="253.61" style="fill:none;stroke:#1b1464;stroke-miterlimit:10;stroke-width:16px"/><path d="M247.56,249.57c-.46-.67-.9-1.32-1.33-2a115.7,115.7,0,0,0,3.62-30.87,122.11,122.11,0,0,0-11.26-48.24,158.16,158.16,0,0,0-11.55-21c14.07-61.54,68-105.55,68-105.55C409.78,164.64,247.56,249.57,247.56,249.57Z" style="fill:none;stroke:#009245;stroke-miterlimit:10;stroke-width:7px"/><path d="M266.62,199.4q-1.22-2.33-2.25-4.63a98.22,98.22,0,0,0-6.51-34.92c2-42.21,35.93-76.69,35.93-76.69C342.21,147.54,266.62,199.4,266.62,199.4Z" style="fill:lime"/><path d="M224.52,213.19s-90.41-35.81-61.19-104.52C163.33,108.67,237.72,153.7,224.52,213.19Z" style="fill:lime"/><path d="M246.27,247.29c-.2.8-.41,1.6-.63,2.39,0,0-158-53.86-99.57-177.63,0,0,50.43,28.12,81,75.14a160.53,160.53,0,0,1,11.54,21,122.33,122.33,0,0,1,11.27,48.25A116.57,116.57,0,0,1,246.27,247.29Z" style="fill:none;stroke:#009245;stroke-miterlimit:10;stroke-width:7px"/></g></g></svg>