<svg xmlns="http://www.w3.org/2000/svg" viewBox="0 0 454.35 479.55"><title>hydro</title><g id="Layer_2" data-name="Layer 2"><g id="Layer_1-2" data-name="Layer 1"><path d="M411.39,239.77c0,107.49-82.48,194.62-184.22,194.62S43,347.26,43,239.77Z" style="fill:#29abe2"/><ellipse cx="227.17" cy="239.77" rx="223.17" ry="235.77" style="fill:none;stroke:#1b1464;stroke-miterlimit:10;stroke-width:8px"/><path d="M239.56,226.3c-.49-.56-1-1.12-1.45-1.68a107.45,107.45,0,0,0,0-28.9,113,113,0,0,0-15.75-43.3,147.6,147.6,0,0,0-13-18.09C215.61,76,260.87,29.39,260.87,29.39,380.8,130,239.56,226.3,239.56,226.3Z" style="fill:none;stroke:#009245;stroke-miterlimit:10;stroke-width:7px"/><path d="M251.74,177.89q-1.38-2-2.59-4a91.05,91.05,0,0,0-9.88-31.52c-2.81-39.18,24.93-74.76,24.93-74.76C316.21,121.67,251.74,177.89,251.74,177.89Z" style="fill:lime"/><path d="M214.18,195.27s-87.84-23.08-68.26-89.74C145.92,105.53,219.9,138.89,214.18,195.27Z" style="fill:lime"/><path d="M238.11,224.34c-.09.76-.21,1.52-.32,2.28,0,0-152.59-32.28-111.91-153,0,0,49.89,20.4,83.43,60.44a146.84,146.84,0,0,1,13,18.09,113,113,0,0,1,15.75,43.29A107.45,107.45,0,0,1,238.11,224.34Z" style="fill:none;stroke:#009245;stroke-miterlimit:10;stroke-width:7px"/><line x1="233.33" y1="239.77" x2="233.33" y2="397.86" style="fill:none;stroke:#fff;stroke-linecap:round;stroke-miterlimit:10;stroke-width:8px"/><line x1="233.33" y1="271.69" x2="307.3" y2="313.46" style="fill:none;stroke:#fff;stroke-linecap:round;stroke-miterlimit:10;stroke-width:8px"/><line x1="233.63" y1="342.13" x2="284.84" y2="372.51" style="fill:none;stroke:#fff;stroke-linecap:round;stroke-miterlimit:10;stroke-width:8px"/><line x1="154.97" y1="314.03" x2="233.33" y2="271.88" style="fill:none;stroke:#fff;stroke-linecap:round;stroke-miterlimit:10;stroke-width:8px"/><line x1="178.6" y1="372.1" x2="232.63" y2="343.04" style="fill:none;stroke:#fff;stroke-linecap:round;stroke-miterlimit:10;stroke-width:8px"/></g></g></svg>